<svg viewBox="0 0 960 455" fill="none" xmlns="http://www.w3.org/2000/svg">
<g clip-path="url(#clip0_394_27197)">
<path d="M610.48 223.094C610.49 267.511 588.72 309.085 552.29 334.228H400.18C339.11 292.011 323.66 208.03 365.68 146.66C407.69 85.2897 491.26 69.7638 552.33 111.98C588.73 137.143 610.47 178.697 610.48 223.094Z" fill="#D80C24"/>
<path opacity="0.08" d="M595.19 289.057C584.77 307.406 570.04 322.912 552.28 334.228H400.18C382.44 322.902 367.73 307.396 357.32 289.057H595.19Z" fill="black"/>
<path d="M345.83 314.079H598.57C608.42 314.079 616.4 321.505 616.4 330.67C616.4 339.835 608.42 347.261 598.57 347.261H345.83C335.98 347.261 328 339.835 328 330.67C328 321.505 335.98 314.079 345.83 314.079Z" fill="#FFD200"/>
<path opacity="0.08" d="M413.93 338.569C437.618 338.569 456.82 336.004 456.82 332.841C456.82 329.677 437.618 327.113 413.93 327.113C390.243 327.113 371.04 329.677 371.04 332.841C371.04 336.004 390.243 338.569 413.93 338.569Z" fill="black"/>
<path d="M381.58 347.261H621.47C627.29 347.261 632 351.502 632 356.738C632 361.973 627.28 366.214 621.47 366.214H381.58C375.76 366.214 371.05 361.973 371.05 356.738C371.05 351.502 375.77 347.261 381.58 347.261Z" fill="#FFD200"/>
<path d="M439.03 318.229C439.03 318.792 439 319.365 438.93 319.928C437.97 328.017 430.66 333.795 422.61 332.831C414.56 331.866 408.81 324.52 409.77 316.43C410.73 308.341 418.04 302.563 426.09 303.527C433.49 304.422 439.06 310.743 439.03 318.239V318.229Z" fill="white"/>
<path d="M398.06 157.312C413.364 157.312 425.77 144.845 425.77 129.466C425.77 114.087 413.364 101.62 398.06 101.62C382.756 101.62 370.35 114.087 370.35 129.466C370.35 144.845 382.756 157.312 398.06 157.312Z" fill="#FFD200"/>
<path d="M407.06 252.166C407.06 278.987 403.23 318.983 397.59 330.901H380.48C374.86 318.983 371.03 278.987 371.03 252.166C371.03 213.256 389.04 198.413 389.04 198.413C389.04 198.413 407.06 213.296 407.06 252.166Z" fill="#D80C24"/>
<path d="M407.06 252.166C407.06 278.987 403.23 318.983 397.59 330.901H380.48C374.86 318.983 371.03 278.987 371.03 252.166C371.03 213.256 389.04 198.413 389.04 198.413C389.04 198.413 407.06 213.296 407.06 252.166Z" fill="#24285B"/>
<path opacity="0.2" d="M407.06 252.166C407.06 278.987 403.23 318.983 397.59 330.901H389.04V198.413C389.04 198.413 407.06 213.296 407.06 252.166Z" fill="white"/>
<path d="M543.73 211.407H539.68V314.079H543.73V211.407Z" fill="#999999"/>
<path d="M626.58 215.165H456.82L541.7 183.902L626.58 215.165Z" fill="#E6E6E6"/>
<path d="M456.82 215.165H513.38C513.38 218.893 510.37 221.918 506.66 221.918H463.53C459.82 221.918 456.81 218.893 456.81 215.165H456.82Z" fill="#CCCCCC"/>
<path d="M513.4 215.165H569.96C569.96 218.893 566.95 221.918 563.24 221.918H520.11C516.4 221.918 513.39 218.893 513.39 215.165H513.4Z" fill="#CCCCCC"/>
<path d="M569.99 215.165H626.55C626.55 218.893 623.54 221.918 619.83 221.918H576.7C572.99 221.918 569.98 218.893 569.98 215.165H569.99Z" fill="#CCCCCC"/>
<path opacity="0.08" d="M513.4 215.165L541.7 183.902L569.99 215.165H513.4Z" fill="black"/>
<path opacity="0.49" d="M407.06 182.897C407.06 178.646 410.49 175.21 414.71 175.21C415.12 175.21 415.53 175.24 415.93 175.31C417.73 171.944 421.22 169.853 425.01 169.843H425.39C425.14 168.869 425.01 167.864 425.01 166.859C425.01 160.056 430.51 154.549 437.28 154.549C444.05 154.549 449.53 160.076 449.53 166.879C449.53 167.884 449.4 168.889 449.15 169.864H449.53C455.23 169.864 459.85 174.516 459.85 180.234C459.85 185.962 455.23 190.595 449.53 190.605H413.74V190.525C409.91 190.052 407.03 186.776 407.04 182.887L407.06 182.897Z" fill="#F2F2F2"/>
<path opacity="0.49" d="M552.28 147.876C552.28 144.168 549.3 141.163 545.62 141.163C545.62 141.163 545.62 141.163 545.61 141.163C545.25 141.163 544.89 141.193 544.54 141.254C542.97 138.319 539.92 136.49 536.61 136.49H536.28C537.67 130.722 534.14 124.914 528.41 123.527C522.67 122.13 516.89 125.677 515.51 131.436C515.11 133.094 515.11 134.832 515.51 136.49H515.19C510.22 136.49 506.18 140.54 506.18 145.534C506.18 150.529 510.21 154.589 515.18 154.589H546.44C549.81 154.177 552.33 151.293 552.3 147.886L552.28 147.876Z" fill="#F2F2F2"/>
<path d="M492.94 283.278H524.04L520.73 292.162H496.23L492.94 283.278Z" fill="#E6E6E6"/>
<path d="M519.07 283.278L508.22 244.016L497.89 283.278H519.07Z" fill="#E6E6E6"/>
<path opacity="0.08" d="M438.92 319.928C437.98 328.047 430.67 333.866 422.59 332.921C414.51 331.977 408.72 324.631 409.66 316.511C410.22 311.667 413.12 307.406 417.41 305.135C416.97 307.798 417.14 310.522 417.89 313.104C418.93 316.581 421.28 319.897 424.76 320.842C426.97 321.264 429.23 321.214 431.42 320.701C433.91 320.34 436.41 320.078 438.92 319.928Z" fill="black"/>
</g>
<defs>
<clipPath id="clip0_394_27197">
<rect width="304" height="278" fill="white" transform="translate(328 88.2141)"/>
</clipPath>
</defs>
</svg>
