<svg width="40" height="40" viewBox="0 0 40 40" fill="none" xmlns="http://www.w3.org/2000/svg">
  <g clipPath="url(#clip0_1880_61879)">
    <path d="M20.0002 3.33325C10.8002 3.33325 3.3335 10.7999 3.3335 19.9999C3.3335 29.1999 10.8002 36.6666 20.0002 36.6666C29.2002 36.6666 36.6668 29.1999 36.6668 19.9999C36.6668 10.7999 29.2002 3.33325 20.0002 3.33325ZM20.0002 33.3333C12.6502 33.3333 6.66683 27.3499 6.66683 19.9999C6.66683 12.6499 12.6502 6.66659 20.0002 6.66659C27.3502 6.66659 33.3335 12.6499 33.3335 19.9999C33.3335 27.3499 27.3502 33.3333 20.0002 33.3333ZM27.6502 12.6333L16.6668 23.6166L12.3502 19.3166L10.0002 21.6666L16.6668 28.3333L30.0002 14.9999L27.6502 12.6333Z" fill="#37CC85"/>
  </g>
  <defs>
    <clipPath id="clip0_1880_61879">
      <rect width="40" height="40" fill="white"/>
    </clipPath>
  </defs>
</svg>