<svg viewBox="0 0 960 454" fill="none" xmlns="http://www.w3.org/2000/svg">
<path d="M960 0H0V454H960V0Z" fill="#F5F5F5"/>
<path d="M960 250.625H0V454H960V250.625Z" fill="url(#paint0_linear_33_30219)"/>
<path d="M607.816 215.005L607.348 214.725V214.228H606.496L484.953 142.763H471.924L350.381 214.228H349.528V214.725L349.061 215.005H349.528V358.92H607.348V215.005H607.816Z" fill="#24285B"/>
<path d="M571.195 158.598H385.682C382.559 158.598 380.026 161.13 380.026 164.254V335.387C380.026 338.511 382.559 341.043 385.682 341.043H571.195C574.319 341.043 576.851 338.511 576.851 335.387V164.254C576.851 161.13 574.319 158.598 571.195 158.598Z" fill="white"/>
<path d="M607.816 214.228V358.712H349.061V214.228H349.414L471.924 286.263H484.953L607.463 214.228H607.816Z" fill="#A5A5A5"/>
<path opacity="0.46" d="M471.924 286.47H484.953L607.816 358.702H349.061L471.924 286.47Z" fill="white"/>
<ellipse rx="59.7429" ry="59.5698" transform="matrix(0.966142 0.258011 -0.259629 0.965708 576.095 199.307)" fill="white"/>
<g clip-path="url(#clip0_33_30219)">
<path d="M592.504 137.56C580.295 134.3 567.391 134.721 555.422 138.77C543.453 142.819 532.958 150.315 525.264 160.309C517.569 170.303 513.021 182.346 512.195 194.917C511.368 207.487 514.3 220.019 520.62 230.928C526.939 241.838 536.363 250.635 547.699 256.206C559.035 261.778 571.774 263.874 584.305 262.23C596.836 260.585 608.597 255.274 618.1 246.969C627.603 238.663 634.421 227.735 637.692 215.567C642.079 199.25 639.782 181.865 631.308 167.236C622.834 152.607 608.875 141.932 592.504 137.56ZM560.54 221.296L544.402 193.436L553.294 188.318L564.299 207.314L605.725 183.48L610.887 192.328L560.54 221.296Z" fill="#37CC85"/>
</g>
<path d="M776.411 186.328L778.518 190.068C778.518 190.068 771.57 198.38 764.28 192.839L764.166 186.161C764.166 186.161 767.256 193.31 776.411 186.328Z" fill="#D80C24"/>
<path d="M367.383 244.973L369.49 248.714C369.49 248.714 362.542 257.026 355.253 251.484L355.139 244.807C355.139 244.807 358.228 251.955 367.383 244.973Z" fill="#D80C24"/>
<path d="M739.864 154.379L736.896 146.28C736.896 146.28 753.253 143.664 754.119 158.984C754.09 158.984 748.468 150.988 739.864 154.379Z" fill="#FFD000"/>
<path d="M182.917 161.665L179.557 157.554C177.466 158.235 175.534 159.378 173.887 160.908C172.24 162.437 170.916 164.319 170 166.43L177.63 170.427C177.63 170.427 178.781 163.827 182.917 161.665Z" fill="#FFE455"/>
<path d="M227.81 82.9491L227.407 78.944C227.407 78.944 236.309 74.1796 240.324 81.6795L238.037 87.4648C238.037 87.4648 238.063 80.1743 227.81 82.9491Z" fill="#3BA4A9"/>
<path d="M215.926 238.354L221.869 234.794C221.869 234.794 231.354 247.714 225.498 253.389L221.71 252.52C221.71 252.52 225.903 245.444 215.926 238.354Z" fill="#F85870"/>
<path d="M712.499 276.974L718.442 273.415C718.442 273.415 727.928 286.334 722.071 292.01L718.283 291.141C718.283 291.141 722.476 284.064 712.499 276.974Z" fill="#F85870"/>
<path d="M195.351 295.658L195.834 303.452C195.834 303.452 179.918 301.131 183.421 287.718C183.476 287.718 186.414 296.172 195.351 295.658Z" fill="#FFD000"/>
<path d="M240.252 157.451L234.114 160.414C234.114 160.414 233.713 153.435 228.843 153.005L230.724 148.974C230.724 148.974 241.293 148.559 240.252 157.451Z" fill="#F46670"/>
<path d="M789.928 250.799L783.79 253.389C783.79 253.389 783.403 247.29 778.519 246.914L780.4 243.379C780.4 243.379 790.969 243.029 789.928 250.799Z" fill="#52D2D4"/>
<path d="M375.158 130.647L369.02 133.237C369.02 133.237 368.633 127.138 363.749 126.762L365.631 123.227C365.631 123.227 376.199 122.877 375.158 130.647Z" fill="#52D2D4"/>
<path d="M731.155 107.265L734.852 108.921C743.072 102.312 740.958 92.0861 740.958 92.0861L733.774 88.8954C733.774 88.8954 737.625 95.8642 731.155 107.265Z" fill="#FFF1AD"/>
<path d="M452.612 99.1797L454.167 103.823C454.167 103.823 446.051 102.666 444.51 107.49L442.686 104.213C442.686 104.213 445.655 97.4925 452.612 99.1797Z" fill="#F85870"/>
<path d="M561.471 83.1738L563.24 79.7579C556.954 71.7213 546.606 73.2836 546.606 73.2836L543.147 79.9035C543.147 79.9035 550.305 76.5538 561.471 83.1738Z" fill="#FFD000"/>
<path d="M660.118 123.224L655.092 118.88C655.092 118.88 656.507 109.891 664.924 110.369L669.444 114.468C669.444 114.468 656.754 114.481 660.118 123.224Z" fill="#3BA4A9"/>
<path d="M309.213 313.278L305.525 314.895C297.294 308.211 299.411 298.038 299.411 298.038L306.591 294.87C306.591 294.87 302.735 301.862 309.213 313.278Z" fill="#FFF1AD"/>
<path d="M568.918 279.407L567.546 284.057C567.546 284.057 574.651 282.902 575.986 287.718L577.592 284.433C577.592 284.433 574.985 277.723 568.918 279.407Z" fill="#F85870"/>
<path d="M622.416 276.275L620.647 272.371C626.943 263.187 637.271 264.972 637.271 264.972L640.74 272.538C640.74 272.538 633.574 268.71 622.416 276.275Z" fill="#FFD000"/>
<path d="M289.331 377.832L294.86 373.488C294.86 373.488 293.303 364.499 284.045 364.977L279.073 369.075C279.073 369.075 293.032 369.089 289.331 377.832Z" fill="#3BA4A9"/>
<path d="M656.738 340.642L662.267 336.298C662.267 336.298 660.71 327.309 651.452 327.787L646.48 331.886C646.48 331.886 660.439 331.899 656.738 340.642Z" fill="#3BA4A9"/>
<defs>
<linearGradient id="paint0_linear_33_30219" x1="480" y1="446.693" x2="480" y2="370.067" gradientUnits="userSpaceOnUse">
<stop stop-color="white"/>
<stop offset="1" stop-color="white" stop-opacity="0"/>
</linearGradient>
<clipPath id="clip0_33_30219">
<rect width="146.038" height="145.615" fill="white" transform="matrix(0.966142 0.258011 -0.259629 0.965708 524.32 109.932)"/>
</clipPath>
</defs>
</svg>
