<svg width="128" height="128" viewBox="0 0 128 128" fill="none" xmlns="http://www.w3.org/2000/svg">
<g clip-path="url(#clip0_14_140474)">
<path d="M102.186 54.2231V62.4974C102.186 64.4069 100.92 65.9527 99.3826 65.9527H23.6031C22.0658 65.9527 20.7998 64.4069 20.7998 62.4974V54.2231C20.7998 53.1319 21.2519 52.0408 21.9754 51.4043L57.6044 19.9435C59.9556 17.8522 63.1206 17.8522 65.4717 19.9435L101.101 51.4043C101.734 52.0408 102.186 53.1319 102.186 54.2231Z" fill="#EEEEEE"/>
<path d="M92.0742 23.8945C92.0742 25.8949 90.4465 27.5316 88.4571 27.5316C86.4676 27.5316 84.8399 25.8949 84.8399 23.8945H82.127C82.127 25.8949 80.4993 27.5316 78.5099 27.5316C76.5204 27.5316 74.8927 25.8949 74.8927 23.8945H47.764C47.764 25.8949 46.1363 27.5316 44.1468 27.5316C42.1574 27.5316 40.5297 25.8949 40.5297 23.8945H37.8168C37.8168 25.8949 36.1891 27.5316 34.1997 27.5316C32.2102 27.5316 30.5825 25.8949 30.5825 23.8945H26.9653V72.9952H95.6914V23.8945H92.0742Z" fill="#FAFAFA"/>
<rect x="33.1309" y="36.2676" width="14.1809" height="14.173" rx="2" fill="#FAAEB7"/>
<rect x="33.1309" y="52.9062" width="56.1071" height="1.84865" fill="#FAAEB7"/>
<rect x="33.1309" y="57.2207" width="56.1071" height="1.84865" fill="#FAAEB7"/>
<rect x="33.1309" y="61.5332" width="56.1071" height="1.84866" fill="#FAAEB7"/>
<rect x="33.1309" y="65.8477" width="56.1071" height="1.84865" fill="#FAAEB7"/>
<path d="M30.2044 109.598H23.6031C22.0658 109.598 20.7998 108.688 20.7998 107.597V54.2231C20.7998 53.1319 22.0658 52.2227 23.6031 52.2227H24.7787C25.683 52.2227 26.4968 52.4954 27.0394 53.041L56.4289 76.773C58.147 78.4097 58.147 80.6829 56.4289 82.3196L32.4652 108.779C31.9226 109.325 31.1087 109.598 30.2044 109.598Z" fill="#EEEEEE"/>
<path d="M92.7813 109.598H99.3826C100.92 109.598 102.186 108.688 102.186 107.597V54.2231C102.186 53.1319 100.92 52.2227 99.3826 52.2227H98.2071C97.3028 52.2227 96.4889 52.4954 95.9463 53.041L66.5569 76.8639C64.8388 78.5006 64.8388 80.7738 66.5569 82.4105L90.5206 108.87C91.0632 109.325 91.877 109.598 92.7813 109.598Z" fill="#EEEEEE"/>
<path d="M102.186 100.142V106.779C102.186 108.325 100.92 109.598 99.3826 109.598H23.6031C22.0658 109.598 20.7998 108.325 20.7998 106.779V100.142C20.7998 99.2325 21.2519 98.4142 21.9754 97.8686L57.6044 72.409C59.9556 70.6814 63.1206 70.6814 65.4718 72.409L101.101 97.8686C101.734 98.4142 102.186 99.2325 102.186 100.142Z" fill="#BDBDBD"/>
</g>
<path d="M100.8 39.1992C97.477 39.1992 94.2289 40.1845 91.4662 42.0305C88.7034 43.8765 86.5501 46.5003 85.2786 49.5701C84.007 52.6399 83.6743 56.0179 84.3226 59.2767C84.9708 62.5356 86.5708 65.5291 88.9204 67.8786C91.2699 70.2281 94.2634 71.8282 97.5222 72.4764C100.781 73.1246 104.159 72.7919 107.229 71.5204C110.299 70.2488 112.922 68.0955 114.768 65.3328C116.614 62.57 117.6 59.3219 117.6 55.9992C117.6 51.5436 115.83 47.2704 112.679 44.1198C109.529 40.9692 105.255 39.1992 100.8 39.1992ZM98.3998 62.7082L92.3998 56.7082L94.3085 54.7992L98.3998 58.8903L107.292 49.9992L109.207 51.9023L98.3998 62.7082Z" fill="#37CC85"/>
<defs>
<clipPath id="clip0_14_140474">
<rect width="81.3861" height="91.2" fill="white" transform="translate(20.7998 18.3984)"/>
</clipPath>
</defs>
</svg>
